<svg width="6" height="8" viewBox="0 0 6 8" fill="none" xmlns="http://www.w3.org/2000/svg">
<path d="M1.94251 7.74999L5.12251 4.53249C5.19281 4.46277 5.2486 4.37982 5.28668 4.28842C5.32476 4.19703 5.34436 4.099 5.34436 3.99999C5.34436 3.90098 5.32476 3.80295 5.28668 3.71156C5.2486 3.62016 5.19281 3.53721 5.12251 3.46749L1.94251 0.287492C1.87279 0.217196 1.78984 0.1614 1.69844 0.123323C1.60705 0.0852466 1.50902 0.0656431 1.41001 0.0656431C1.311 0.0656431 1.21297 0.0852466 1.12158 0.123323C1.03018 0.1614 0.947233 0.217196 0.877511 0.287492C0.737823 0.428014 0.659416 0.618102 0.659416 0.816242C0.659416 1.01438 0.737822 1.20447 0.87751 1.34499L3.53251 3.99999L0.87751 6.65499C0.738952 6.79469 0.660839 6.98324 0.660011 7.17999C0.65944 7.2787 0.678358 7.37654 0.715682 7.46792C0.753005 7.5593 0.807999 7.64241 0.87751 7.71249C0.944724 7.7853 1.0257 7.84406 1.11575 7.88539C1.20581 7.92672 1.30317 7.9498 1.40219 7.95329C1.50122 7.95677 1.59995 7.9406 1.69269 7.90571C1.78544 7.87082 1.87034 7.81789 1.94251 7.74999Z" fill="#828282"/>
</svg>
