<svg width="16" height="16" viewBox="0 0 16 16" fill="none" xmlns="http://www.w3.org/2000/svg">
<g clip-path="url(#clip0_79_1871)">
<g opacity="0.2">
<rect width="20" height="20" rx="10" transform="matrix(-4.37114e-08 1 1 4.37114e-08 -2 -2)" fill="#92929F"/>
</g>
<path d="M10.0845 10.6L10.0845 10.6C10.1519 10.5992 10.2184 10.5852 10.2804 10.5588C10.4065 10.5064 10.5066 10.4061 10.559 10.28L10.4666 10.2417L10.5586 10.2809C10.5851 10.2188 10.5992 10.1521 10.6 10.0845L10.6 10.0833H10.6V5.91667C10.6 5.77964 10.5455 5.64822 10.4486 5.55133C10.3518 5.45443 10.2203 5.4 10.0833 5.4C9.94628 5.4 9.81486 5.45443 9.71797 5.55133C9.62108 5.64822 9.56664 5.77964 9.56664 5.91667V8.83754L6.28347 5.55041C6.28343 5.55037 6.28338 5.55032 6.28333 5.55027C6.23533 5.50191 6.17824 5.46352 6.11534 5.43732C6.05238 5.41109 5.98485 5.39758 5.91664 5.39758C5.84844 5.39758 5.7809 5.41109 5.71794 5.43732C5.65511 5.4635 5.59807 5.50183 5.5501 5.55012M10.0845 10.6L5.62081 5.62083M10.0845 10.6H10.0833H5.91664C5.77961 10.6 5.6482 10.5456 5.5513 10.4487C5.45441 10.3518 5.39997 10.2204 5.39997 10.0833C5.39997 9.9463 5.45441 9.81489 5.5513 9.718C5.6482 9.6211 5.77961 9.56667 5.91664 9.56667H8.83751M10.0845 10.6L8.93763 9.66667M5.5501 5.55012C5.55 5.55022 5.5499 5.55032 5.54981 5.55041L5.62081 5.62083M5.5501 5.55012C5.55019 5.55003 5.55029 5.54993 5.55039 5.54983L5.62081 5.62083M5.5501 5.55012C5.50181 5.59809 5.46347 5.65513 5.43729 5.71797C5.41106 5.78093 5.39756 5.84846 5.39756 5.91667C5.39756 5.98487 5.41106 6.0524 5.43729 6.11537C5.4635 6.17828 5.5019 6.23538 5.55028 6.28339L5.55014 6.28325L5.62081 6.2125M5.62081 5.62083C5.58175 5.65957 5.55076 5.70565 5.5296 5.75643C5.50845 5.8072 5.49756 5.86166 5.49756 5.91667C5.49756 5.97167 5.50845 6.02613 5.5296 6.07691C5.55076 6.12768 5.58175 6.17377 5.62081 6.2125M5.62081 6.2125L5.55039 6.2835M5.62081 6.2125L5.55039 6.2835M5.55039 6.2835L8.83751 9.56667M5.55039 6.2835L8.97902 9.56667H8.83751M8.83751 9.56667L8.93763 9.66667M8.93763 9.66667H9.07914H8.93763Z" fill="#92929F" stroke="#92929F" stroke-width="0.2"/>
</g>
<defs>
<clipPath id="clip0_79_1871">
<rect width="16" height="16" rx="8" transform="matrix(-4.37114e-08 1 1 4.37114e-08 0 0)" fill="white"/>
</clipPath>
</defs>
</svg>
