<svg width="16" height="16" viewBox="0 0 16 16" fill="none" xmlns="http://www.w3.org/2000/svg">
<path d="M7.20002 1.60001C6.7582 1.60001 6.40002 1.95818 6.40002 2.40001C6.40002 2.84183 6.7582 3.20001 7.20002 3.20001H8.80002C9.24186 3.20001 9.60002 2.84183 9.60002 2.40001C9.60002 1.95818 9.24186 1.60001 8.80002 1.60001H7.20002Z" fill="#D70019"/>
<path fill-rule="evenodd" clip-rule="evenodd" d="M3.20001 3.99999C3.20001 3.11634 3.91636 2.39999 4.80001 2.39999C4.80001 3.72547 5.87453 4.79999 7.20001 4.79999H8.80001C10.1255 4.79999 11.2 3.72547 11.2 2.39999C12.0837 2.39999 12.8 3.11634 12.8 3.99999V12.8C12.8 13.6837 12.0837 14.4 11.2 14.4H4.80001C3.91636 14.4 3.20001 13.6837 3.20001 12.8V3.99999ZM5.60001 7.19999C5.15819 7.19999 4.80001 7.55817 4.80001 7.99999C4.80001 8.44183 5.15819 8.79999 5.60001 8.79999H5.60801C6.04984 8.79999 6.40801 8.44183 6.40801 7.99999C6.40801 7.55817 6.04984 7.19999 5.60801 7.19999H5.60001ZM8.00001 7.19999C7.55819 7.19999 7.20001 7.55817 7.20001 7.99999C7.20001 8.44183 7.55819 8.79999 8.00001 8.79999H10.4C10.8419 8.79999 11.2 8.44183 11.2 7.99999C11.2 7.55817 10.8419 7.19999 10.4 7.19999H8.00001ZM5.60001 10.4C5.15819 10.4 4.80001 10.7582 4.80001 11.2C4.80001 11.6418 5.15819 12 5.60001 12H5.60801C6.04984 12 6.40801 11.6418 6.40801 11.2C6.40801 10.7582 6.04984 10.4 5.60801 10.4H5.60001ZM8.00001 10.4C7.55819 10.4 7.20001 10.7582 7.20001 11.2C7.20001 11.6418 7.55819 12 8.00001 12H10.4C10.8419 12 11.2 11.6418 11.2 11.2C11.2 10.7582 10.8419 10.4 10.4 10.4H8.00001Z" fill="#D70019"/>
</svg>
