<svg width="16" height="16" viewBox="0 0 16 16" fill="none" xmlns="http://www.w3.org/2000/svg">
<g clip-path="url(#clip0_79_1863)">
<g opacity="0.2">
<rect x="-2" y="18" width="20" height="20" rx="10" transform="rotate(-90 -2 18)" fill="#21D186"/>
</g>
<path d="M10.0845 5.4L10.0845 5.40001C10.1519 5.40082 10.2184 5.4148 10.2804 5.44116C10.4065 5.49364 10.5066 5.59388 10.559 5.71998L10.4666 5.75833L10.5586 5.71912C10.5851 5.78124 10.5992 5.84794 10.6 5.91546L10.6 5.91667H10.6V10.0833C10.6 10.2204 10.5455 10.3518 10.4486 10.4487C10.3518 10.5456 10.2203 10.6 10.0833 10.6C9.94628 10.6 9.81486 10.5456 9.71797 10.4487C9.62108 10.3518 9.56664 10.2204 9.56664 10.0833V7.16246L6.28347 10.4496C6.28343 10.4496 6.28338 10.4497 6.28333 10.4497C6.23533 10.4981 6.17824 10.5365 6.11534 10.5627C6.05238 10.5889 5.98485 10.6024 5.91664 10.6024C5.84844 10.6024 5.7809 10.5889 5.71794 10.5627C5.65511 10.5365 5.59807 10.4982 5.5501 10.4499M10.0845 5.4L5.62081 10.3792M10.0845 5.4H10.0833H5.91664C5.77961 5.4 5.6482 5.45443 5.5513 5.55133C5.45441 5.64822 5.39997 5.77964 5.39997 5.91667C5.39997 6.0537 5.45441 6.18511 5.5513 6.282C5.6482 6.3789 5.77961 6.43333 5.91664 6.43333H8.83751M10.0845 5.4L8.93763 6.33333M5.5501 10.4499C5.55 10.4498 5.5499 10.4497 5.54981 10.4496L5.62081 10.3792M5.5501 10.4499C5.55019 10.45 5.55029 10.4501 5.55039 10.4502L5.62081 10.3792M5.5501 10.4499C5.50181 10.4019 5.46347 10.3449 5.43729 10.282C5.41106 10.2191 5.39756 10.1515 5.39756 10.0833C5.39756 10.0151 5.41106 9.9476 5.43729 9.88463C5.4635 9.82172 5.5019 9.76462 5.55028 9.71661L5.55014 9.71675L5.62081 9.7875M5.62081 10.3792C5.58175 10.3404 5.55076 10.2943 5.5296 10.2436C5.50845 10.1928 5.49756 10.1383 5.49756 10.0833C5.49756 10.0283 5.50845 9.97387 5.5296 9.92309C5.55076 9.87232 5.58175 9.82623 5.62081 9.7875M5.62081 9.7875L5.55039 9.7165M5.62081 9.7875L5.55039 9.7165M5.55039 9.7165L8.83751 6.43333M5.55039 9.7165L8.97902 6.43333H8.83751M8.83751 6.43333L8.93763 6.33333M8.93763 6.33333H9.07914H8.93763Z" fill="#21D186" stroke="#21D186" stroke-width="0.2"/>
</g>
<defs>
<clipPath id="clip0_79_1863">
<rect y="16" width="16" height="16" rx="8" transform="rotate(-90 0 16)" fill="white"/>
</clipPath>
</defs>
</svg>
