<svg width="8" height="8" viewBox="0 0 8 8" fill="none" xmlns="http://www.w3.org/2000/svg">
<g clip-path="url(#clip0_1112_365)">
<path d="M6.97294 1.54501L4.98861 6.90501C4.86328 7.24368 4.50228 7.41768 4.18261 7.29334C4.10345 7.26199 4.03164 7.21458 3.97169 7.15412C3.91174 7.09366 3.86495 7.02144 3.83428 6.94201L3.20528 5.35201C3.08707 5.04679 2.85275 4.80084 2.55361 4.66801L1.03961 4.00768C0.724611 3.87001 0.581278 3.48834 0.718944 3.15501C0.751507 3.07452 0.799707 3.00129 0.860757 2.93956C0.921807 2.87782 0.994493 2.8288 1.07461 2.79534L6.17994 0.71201C6.50228 0.580343 6.85994 0.745676 6.97828 1.08168C7.03061 1.23034 7.02861 1.39501 6.97328 1.54501H6.97294Z" fill="#676776"/>
</g>
<defs>
<clipPath id="clip0_1112_365">
<rect width="8" height="8" fill="white"/>
</clipPath>
</defs>
</svg>
