<svg width="24" height="24" viewBox="0 0 24 24" fill="none" xmlns="http://www.w3.org/2000/svg">
<path d="M12.8485 2.75149C12.3799 2.28287 11.6201 2.28287 11.1515 2.75149L2.75149 11.1515C2.28287 11.6201 2.28287 12.3799 2.75149 12.8485C3.22013 13.3171 3.97992 13.3171 4.44856 12.8485L4.80002 12.4971V20.4C4.80002 21.0628 5.33729 21.6 6.00002 21.6H8.40002C9.06276 21.6 9.60002 21.0628 9.60002 20.4V18C9.60002 17.3373 10.1373 16.8 10.8 16.8H13.2C13.8628 16.8 14.4 17.3373 14.4 18V20.4C14.4 21.0628 14.9373 21.6 15.6 21.6H18C18.6628 21.6 19.2 21.0628 19.2 20.4V12.4971L19.5515 12.8485C20.0201 13.3171 20.7799 13.3171 21.2485 12.8485C21.7171 12.3799 21.7171 11.6201 21.2485 11.1515L12.8485 2.75149Z" fill="white"/>
</svg>
