<svg width="7" height="7" viewBox="0 0 7 7" fill="none" xmlns="http://www.w3.org/2000/svg">
<path d="M3.50005 0.7C2.34026 0.7 1.40006 1.6402 1.40006 2.8V4.05503L1.15257 4.30252C1.05247 4.40262 1.02253 4.55315 1.0767 4.68394C1.13087 4.81474 1.2585 4.9 1.40006 4.9H5.60005C5.74162 4.9 5.86923 4.81474 5.92341 4.68394C5.97759 4.55315 5.94763 4.40262 5.84753 4.30252L5.60005 4.05503V2.8C5.60005 1.6402 4.65984 0.7 3.50005 0.7Z" fill="white"/>
<path d="M3.49995 6.3C2.92005 6.3 2.44995 5.82991 2.44995 5.25H4.54995C4.54995 5.82991 4.07987 6.3 3.49995 6.3Z" fill="white"/>
</svg>
