<svg width="16" height="16" viewBox="0 0 16 16" fill="none" xmlns="http://www.w3.org/2000/svg">
<path fill-rule="evenodd" clip-rule="evenodd" d="M4.80001 4.80001V4.00001C4.80001 2.67453 5.87453 1.60001 7.20001 1.60001H8.80001C10.1255 1.60001 11.2 2.67453 11.2 4.00001V4.80001H12.8C13.6837 4.80001 14.4 5.51635 14.4 6.40001V9.25665C12.4077 9.99577 10.2519 10.3999 8.00001 10.3999C5.74812 10.3999 3.5923 9.99577 1.60001 9.25657V6.40001C1.60001 5.51635 2.31635 4.80001 3.20001 4.80001H4.80001ZM6.40001 4.00001C6.40001 3.55818 6.75818 3.20001 7.20001 3.20001H8.80001C9.24185 3.20001 9.60001 3.55818 9.60001 4.00001V4.80001H6.40001V4.00001ZM7.20001 8.00001C7.20001 7.55818 7.55818 7.20001 8.00001 7.20001H8.00801C8.44985 7.20001 8.80801 7.55818 8.80801 8.00001C8.80801 8.44185 8.44985 8.80001 8.00801 8.80001H8.00001C7.55818 8.80001 7.20001 8.44185 7.20001 8.00001Z" fill="#92929F"/>
<path d="M1.60001 10.9538V12.8C1.60001 13.6837 2.31635 14.4 3.20001 14.4H12.8C13.6837 14.4 14.4 13.6837 14.4 12.8V10.9538C12.3898 11.6323 10.2371 11.9999 8.00001 11.9999C5.76291 11.9999 3.61024 11.6323 1.60001 10.9538Z" fill="#92929F"/>
</svg>
