<svg width="12" height="12" viewBox="0 0 12 12" fill="none" xmlns="http://www.w3.org/2000/svg">
<g clip-path="url(#clip0_79_1842)">
<path d="M6 8.8125C7.5533 8.8125 8.8125 7.5533 8.8125 6C8.8125 4.4467 7.5533 3.1875 6 3.1875C4.4467 3.1875 3.1875 4.4467 3.1875 6C3.1875 7.5533 4.4467 8.8125 6 8.8125Z" fill="#D70019"/>
<path fill-rule="evenodd" clip-rule="evenodd" d="M6 3.75C4.75736 3.75 3.75 4.75736 3.75 6C3.75 7.24264 4.75736 8.25 6 8.25C7.24264 8.25 8.25 7.24264 8.25 6C8.25 4.75736 7.24264 3.75 6 3.75ZM2.625 6C2.625 4.13604 4.13604 2.625 6 2.625C7.86396 2.625 9.375 4.13604 9.375 6C9.375 7.86396 7.86396 9.375 6 9.375C4.13604 9.375 2.625 7.86396 2.625 6Z" fill="#D70019"/>
<path fill-rule="evenodd" clip-rule="evenodd" d="M6 0.1875C6.31066 0.1875 6.5625 0.43934 6.5625 0.75V1.6875C6.5625 1.99816 6.31066 2.25 6 2.25C5.68934 2.25 5.4375 1.99816 5.4375 1.6875V0.75C5.4375 0.43934 5.68934 0.1875 6 0.1875Z" fill="#D70019"/>
<path fill-rule="evenodd" clip-rule="evenodd" d="M1.88973 1.88975C2.1094 1.67008 2.46555 1.67008 2.68522 1.88975L3.34616 2.55069C3.56583 2.77036 3.56583 3.12652 3.34616 3.34618C3.12649 3.56585 2.77034 3.56585 2.55067 3.34618L1.88973 2.68525C1.67006 2.46558 1.67006 2.10942 1.88973 1.88975Z" fill="#D70019"/>
<path fill-rule="evenodd" clip-rule="evenodd" d="M0.1875 6C0.1875 5.68934 0.43934 5.4375 0.75 5.4375H1.6875C1.99816 5.4375 2.25 5.68934 2.25 6C2.25 6.31066 1.99816 6.5625 1.6875 6.5625H0.75C0.43934 6.5625 0.1875 6.31066 0.1875 6Z" fill="#D70019"/>
<path fill-rule="evenodd" clip-rule="evenodd" d="M3.34616 8.65382C3.56583 8.87349 3.56583 9.22964 3.34616 9.44931L2.68522 10.1102C2.46555 10.3299 2.1094 10.3299 1.88973 10.1102C1.67006 9.89058 1.67006 9.53442 1.88973 9.31475L2.55067 8.65382C2.77034 8.43415 3.12649 8.43415 3.34616 8.65382Z" fill="#D70019"/>
<path fill-rule="evenodd" clip-rule="evenodd" d="M6 9.75C6.31066 9.75 6.5625 10.0018 6.5625 10.3125V11.25C6.5625 11.5607 6.31066 11.8125 6 11.8125C5.68934 11.8125 5.4375 11.5607 5.4375 11.25V10.3125C5.4375 10.0018 5.68934 9.75 6 9.75Z" fill="#D70019"/>
<path fill-rule="evenodd" clip-rule="evenodd" d="M8.65377 8.65382C8.87344 8.43415 9.22959 8.43415 9.44926 8.65382L10.1102 9.31475C10.3299 9.53442 10.3299 9.89058 10.1102 10.1102C9.89053 10.3299 9.53437 10.3299 9.3147 10.1102L8.65377 9.44931C8.4341 9.22964 8.4341 8.87349 8.65377 8.65382Z" fill="#D70019"/>
<path fill-rule="evenodd" clip-rule="evenodd" d="M9.75 6C9.75 5.68934 10.0018 5.4375 10.3125 5.4375H11.25C11.5607 5.4375 11.8125 5.68934 11.8125 6C11.8125 6.31066 11.5607 6.5625 11.25 6.5625H10.3125C10.0018 6.5625 9.75 6.31066 9.75 6Z" fill="#D70019"/>
<path fill-rule="evenodd" clip-rule="evenodd" d="M10.1102 1.88975C10.3299 2.10942 10.3299 2.46558 10.1102 2.68525L9.44926 3.34618C9.22959 3.56586 8.87344 3.56586 8.65377 3.34619C8.4341 3.12652 8.4341 2.77036 8.65377 2.55069L9.3147 1.88975C9.53437 1.67008 9.89053 1.67008 10.1102 1.88975Z" fill="#D70019"/>
</g>
<defs>
<clipPath id="clip0_79_1842">
<rect width="12" height="12" fill="white"/>
</clipPath>
</defs>
</svg>
