<svg width="25" height="24" viewBox="0 0 25 24" fill="none" xmlns="http://www.w3.org/2000/svg">
<path fill-rule="evenodd" clip-rule="evenodd" d="M8.10969 7.20002V6.00002C8.10969 4.0118 9.72147 2.40002 11.7097 2.40002H14.1097C16.098 2.40002 17.7097 4.0118 17.7097 6.00002V7.20002H20.1097C21.4352 7.20002 22.5097 8.27454 22.5097 9.60002V13.885C19.5212 14.9937 16.2876 15.5999 12.9097 15.5999C9.53186 15.5999 6.29814 14.9937 3.30969 13.8849V9.60002C3.30969 8.27454 4.38421 7.20002 5.70969 7.20002H8.10969ZM10.5097 6.00002C10.5097 5.33729 11.047 4.80002 11.7097 4.80002H14.1097C14.7725 4.80002 15.3097 5.33729 15.3097 6.00002V7.20002H10.5097V6.00002ZM11.7097 12C11.7097 11.3373 12.247 10.8 12.9097 10.8H12.9217C13.5845 10.8 14.1217 11.3373 14.1217 12C14.1217 12.6628 13.5845 13.2 12.9217 13.2H12.9097C12.247 13.2 11.7097 12.6628 11.7097 12Z" fill="white"/>
<path d="M3.30969 16.4308V19.2C3.30969 20.5255 4.38421 21.6 5.70969 21.6H20.1097C21.4352 21.6 22.5097 20.5255 22.5097 19.2V16.4308C19.4943 17.4485 16.2654 17.9999 12.9097 17.9999C9.55405 17.9999 6.32504 17.4485 3.30969 16.4308Z" fill="white"/>
</svg>
