<svg width="8" height="8" viewBox="0 0 8 8" fill="none" xmlns="http://www.w3.org/2000/svg">
<path d="M4.79995 0.799999C5.02086 0.799999 5.19995 0.979087 5.19995 1.2C5.19995 1.42091 5.02086 1.6 4.79995 1.6H3.99995C3.77903 1.6 3.59995 1.42091 3.59995 1.2C3.59995 0.979087 3.77903 0.799999 3.99995 0.799999H4.79995Z" fill="#676776"/>
<path d="M6.80005 2C6.80005 1.55817 6.44188 1.2 6.00005 1.2C6.00005 1.86274 5.46279 2.4 4.80005 2.4H4.00005C3.33729 2.4 2.80005 1.86274 2.80005 1.2C2.35821 1.2 2.00005 1.55817 2.00005 2V4.4H3.83437L3.31721 3.88284C3.16101 3.72663 3.16101 3.47336 3.31721 3.31715C3.47341 3.16094 3.72669 3.16094 3.88289 3.31715L5.08289 4.51716C5.2391 4.67336 5.2391 4.92664 5.08289 5.08284L3.88289 6.28284C3.72669 6.43904 3.47341 6.43904 3.31721 6.28284C3.16101 6.12664 3.16101 5.87336 3.31721 5.71716L3.83437 5.2H2.00005V6.4C2.00005 6.84184 2.35821 7.2 2.80005 7.2H6.00005C6.44188 7.2 6.80005 6.84184 6.80005 6.4V2Z" fill="#676776"/>
<path d="M2 4.4H1.2C0.97908 4.4 0.8 4.57908 0.8 4.8C0.8 5.02092 0.97908 5.2 1.2 5.2H2V4.4Z" fill="#676776"/>
</svg>
