<svg width="8" height="8" viewBox="0 0 8 8" fill="none" xmlns="http://www.w3.org/2000/svg">
<path d="M6.62995 3.18333C6.60225 3.12836 6.55987 3.08213 6.50751 3.04977C6.45514 3.01741 6.39484 3.00018 6.33329 2.99999H4.66662V0.999994C4.6702 0.926888 4.64961 0.854638 4.60805 0.794394C4.56648 0.73415 4.50624 0.689263 4.43662 0.666661C4.3697 0.644642 4.29752 0.644394 4.23044 0.665954C4.16337 0.687513 4.10485 0.729771 4.06329 0.786661L1.39662 4.45333C1.36321 4.50162 1.34315 4.55787 1.33846 4.61641C1.33378 4.67494 1.34464 4.73367 1.36995 4.78666C1.39326 4.84724 1.43375 4.8997 1.48645 4.9376C1.53915 4.9755 1.60177 4.99718 1.66662 4.99999H3.33329V6.99999C3.33334 7.07029 3.35561 7.13876 3.39692 7.19564C3.43823 7.25251 3.49646 7.29487 3.56329 7.31666C3.59678 7.32704 3.63156 7.33265 3.66662 7.33333C3.71922 7.33346 3.7711 7.32115 3.81802 7.2974C3.86495 7.27365 3.90559 7.23913 3.93662 7.19666L6.60329 3.52999C6.6392 3.48026 6.66069 3.42158 6.6654 3.36041C6.6701 3.29925 6.65784 3.23797 6.62995 3.18333Z" fill="#D70019"/>
</svg>
