<svg width="171" height="36" viewBox="0 0 171 36" fill="none" xmlns="http://www.w3.org/2000/svg">
    <defs>
        <linearGradient id="paint0_linear_932_2253" x1="81.052" y1="32.8435" x2="81.052"
            y2="16.1262" gradientUnits="userSpaceOnUse">
            <stop stop-color="#D1D3D4" />
            <stop offset="1" stop-color="white" />
        </linearGradient>
        <clipPath id="clip0_932_2253">
            <rect width="171" height="36" fill="white" />
        </clipPath>
    </defs>
    <g clip-path="url(#clip0_932_2253)">
        <path fill-rule="evenodd" clip-rule="evenodd"
            d="M58.3857 0C56.1948 0 54.4221 1.75279 54.4221 3.92525C54.4221 6.09772 56.1948 7.85051 58.3857 7.85051C60.5765 7.85051 62.3555 6.09772 62.3555 3.92525C62.3555 1.75279 60.5765 0 58.3857 0ZM171 36V29.4456H169.458C168.048 29.4456 166.887 28.3038 166.887 26.9028V17.6513H170.994V10.6772H166.793V1.09241H159.509V7.81347H100.717C95.7178 7.81347 91.4547 11.0845 90.0128 15.5714C88.8019 10.671 85.3752 8.11589 80.2257 8.11589C76.955 8.11589 74.5145 9.14658 72.8916 11.208L72.3798 8.43682H67.5673V35.9938H74.8515V20.0336C74.8515 16.7379 76.2497 15.09 79.0522 15.09C81.7924 15.09 83.1593 16.6885 83.1593 19.8916V36H89.4823H90.4435H159.496V30.9947C161.063 33.9633 164.209 36 167.81 36H171ZM0 7.81347H40.6528C47.7684 7.81347 53.7043 13.0348 54.7467 19.7929V8.443C55.7454 9.23298 57.0125 9.70204 58.3919 9.70204C59.7714 9.70204 61.0384 9.23298 62.0371 8.443V36C41.3581 36 20.6853 36 0.00624179 36V7.81347H0Z"
            fill="#ED1B34" />
        <path fill-rule="evenodd" clip-rule="evenodd"
            d="M15.2487 10.3562C22.3081 10.3562 25.479 15.1702 25.479 21.7184V33.7719H18.1886V22.132C18.1886 18.9288 16.8154 17.3303 14.0815 17.3303C11.2789 17.3303 9.88074 18.9782 9.88074 22.2739V33.7719H2.59033V10.6771H7.40275L7.91458 13.4483C9.53744 11.3869 11.978 10.3562 15.2487 10.3562ZM127.513 34.0435C120.897 34.0435 115.535 28.7419 115.535 22.1998C115.535 15.6578 120.897 10.3562 127.513 10.3562C134.13 10.3562 139.491 15.6578 139.491 22.1998C139.491 28.7419 134.13 34.0435 127.513 34.0435ZM127.513 27.0694C130.235 27.0694 132.438 24.8907 132.438 22.1998C132.438 19.509 130.235 17.3303 127.513 17.3303C124.792 17.3303 122.589 19.509 122.589 22.1998C122.589 24.8907 124.792 27.0694 127.513 27.0694ZM40.3719 34.0435C33.7556 34.0435 28.3939 28.7419 28.3939 22.1998C28.3939 15.6578 33.7556 10.3562 40.3719 10.3562C46.9882 10.3562 52.3499 15.6578 52.3499 22.1998C52.3499 28.7419 46.9882 34.0435 40.3719 34.0435ZM40.3719 27.0694C43.0933 27.0694 45.2966 24.8907 45.2966 22.1998C45.2966 19.509 43.0933 17.3303 40.3719 17.3303C37.6504 17.3303 35.4471 19.509 35.4471 22.1998C35.4409 24.8907 37.6504 27.0694 40.3719 27.0694ZM149.984 27.7545H157.081V20.7803H149.984V17.6512H159.515V10.6771H142.7V33.8151H149.984V27.7545ZM102.215 10.3562H102.496C106.223 10.3562 110.136 11.7325 112.539 14.6518L108.476 18.3919C107.097 17.0834 104.506 16.0342 102.59 16.0342H102.215C100.568 16.096 99.7375 16.6206 99.7375 17.6019C99.7375 18.9658 101.972 18.9597 102.958 19.0337L103.895 19.0831C109.968 19.5151 113.001 22.0085 113.001 26.5633C113.001 31.7414 108.095 33.9941 103.476 34.0435H103.289C99.4379 34.0435 94.4382 32.8215 91.9415 29.7047L96.0049 25.8721C97.684 27.3965 100.998 28.2297 103.245 28.2297H103.433C104.956 28.2297 105.723 27.7853 105.723 26.8904C105.723 25.403 103.345 25.2857 102.265 25.1808L101.66 25.0882C95.5243 24.6254 92.4596 22.2863 92.4596 18.0709C92.4596 15.701 93.3834 13.8371 95.2372 12.4855C97.0848 11.1215 99.4129 10.4179 102.215 10.3562Z"
            fill="white" />
        <path fill-rule="evenodd" clip-rule="evenodd"
            d="M6.39147 11.8745H3.80737V32.5623H8.66348V22.2677C8.66348 18.7313 10.2427 16.1268 14.0814 16.1268C17.8327 16.1268 19.4056 18.6573 19.4056 22.132V32.5685H24.2617V21.7123C24.2617 19.0399 23.7124 16.3182 21.946 14.2136C20.2545 12.1954 17.8202 11.5535 15.2423 11.5535C12.7643 11.5535 10.4362 12.1831 8.86946 14.1827L7.20915 16.2996L6.39147 11.8745ZM127.513 32.8462C133.462 32.8462 138.28 28.0816 138.28 22.1999C138.28 16.3182 133.462 11.5535 127.513 11.5535C121.565 11.5535 116.746 16.3182 116.746 22.1999C116.746 28.0754 121.571 32.8462 127.513 32.8462ZM127.513 28.2729C124.124 28.2729 121.371 25.5511 121.371 22.1999C121.371 18.8486 124.124 16.1268 127.513 16.1268C130.903 16.1268 133.655 18.8486 133.655 22.1999C133.655 25.5511 130.903 28.2729 127.513 28.2729ZM40.3718 32.8462C46.3202 32.8462 51.1389 28.0816 51.1389 22.1999C51.1389 16.3182 46.3202 11.5535 40.3718 11.5535C34.4233 11.5535 29.6047 16.3182 29.6047 22.1999C29.6047 28.0754 34.4233 32.8462 40.3718 32.8462ZM40.3718 28.2729C36.9825 28.2729 34.2298 25.5511 34.2298 22.1999C34.2298 18.8486 36.9825 16.1268 40.3718 16.1268C43.7611 16.1268 46.5137 18.8486 46.5137 22.1999C46.5074 25.5511 43.7611 28.2729 40.3718 28.2729ZM155.864 26.551V21.9777H148.767V16.4478H158.298V11.8745H143.911V32.6117H148.767V26.551H155.864ZM102.409 23.9835C104.256 24.1625 106.928 24.5019 106.928 26.8842C106.928 28.8407 105.099 29.4208 103.426 29.4208C101.011 29.4208 98.1208 28.7605 96.086 27.4397L93.6392 29.7479C96.1297 32.0068 100.168 32.8338 103.458 32.8338C105.655 32.8092 107.927 32.371 109.649 30.9453C111.048 29.785 111.784 28.3655 111.784 26.5571C111.784 21.3111 107.121 20.4409 102.865 20.2249C101.098 20.0891 98.5203 19.9286 98.5203 17.5957C98.5203 15.5529 100.405 14.8925 102.209 14.8246H102.584C104.475 14.8246 106.872 15.6948 108.42 16.7872L110.823 14.5777C108.632 12.5163 105.474 11.5474 102.49 11.5474H102.234C98.1645 11.6399 93.6579 13.4051 93.6579 18.0586C93.6641 23.1688 98.6389 23.4157 102.409 23.9835Z"
            fill="url(#paint0_linear_932_2253)" />
    </g>
</svg>
