<svg width="20" height="20" viewBox="0 0 20 20" fill="none" xmlns="http://www.w3.org/2000/svg">
<g clip-path="url(#clip0_186_2997)">
<path d="M10 19.9999C15.5228 19.9999 20 15.5228 20 9.9999C20 4.47706 15.5228 -9.53674e-05 10 -9.53674e-05C4.47715 -9.53674e-05 0 4.47706 0 9.9999C0 15.5228 4.47715 19.9999 10 19.9999Z" fill="#F0F0F0"/>
<path d="M9.56445 10.0001H19.9992C19.9992 9.09749 19.8789 8.22312 19.6547 7.39136H9.56445V10.0001Z" fill="#D80027"/>
<path d="M9.56445 4.78265H18.5315C17.9193 3.78374 17.1366 2.90081 16.2241 2.17394H9.56445V4.78265Z" fill="#D80027"/>
<path d="M9.99926 20.0001C12.3527 20.0001 14.5159 19.1867 16.2241 17.8262H3.77441C5.48262 19.1867 7.64578 20.0001 9.99926 20.0001Z" fill="#D80027"/>
<path d="M1.46699 15.2174H18.5315C19.023 14.4155 19.4041 13.5389 19.6548 12.6087H0.34375C0.594414 13.5389 0.975547 14.4155 1.46699 15.2174Z" fill="#D80027"/>
<path d="M4.63219 1.56155H5.54348L4.69582 2.17737L5.01961 3.17381L4.17199 2.55799L3.32437 3.17381L3.60406 2.31299C2.85773 2.93467 2.20359 3.66303 1.66453 4.47459H1.95652L1.41695 4.86658C1.33289 5.00682 1.25227 5.14928 1.175 5.29385L1.43266 6.08686L0.951953 5.7376C0.832461 5.99076 0.723164 6.24963 0.624922 6.51389L0.908789 7.38764H1.95652L1.10887 8.00346L1.43266 8.9999L0.585039 8.38408L0.0773047 8.75299C0.0264844 9.16151 0 9.5776 0 9.9999H10C10 4.47709 10 3.826 10 -9.53674e-05C8.02453 -9.53674e-05 6.18301 0.572951 4.63219 1.56155ZM5.01961 8.9999L4.17199 8.38408L3.32437 8.9999L3.64816 8.00346L2.80051 7.38764H3.84824L4.17199 6.39119L4.49574 7.38764H5.54348L4.69582 8.00346L5.01961 8.9999ZM4.69582 5.09041L5.01961 6.08686L4.17199 5.47104L3.32437 6.08686L3.64816 5.09041L2.80051 4.47459H3.84824L4.17199 3.47815L4.49574 4.47459H5.54348L4.69582 5.09041ZM8.60656 8.9999L7.75895 8.38408L6.91133 8.9999L7.23512 8.00346L6.38746 7.38764H7.4352L7.75895 6.39119L8.0827 7.38764H9.13043L8.28277 8.00346L8.60656 8.9999ZM8.28277 5.09041L8.60656 6.08686L7.75895 5.47104L6.91133 6.08686L7.23512 5.09041L6.38746 4.47459H7.4352L7.75895 3.47815L8.0827 4.47459H9.13043L8.28277 5.09041ZM8.28277 2.17737L8.60656 3.17381L7.75895 2.55799L6.91133 3.17381L7.23512 2.17737L6.38746 1.56155H7.4352L7.75895 0.5651L8.0827 1.56155H9.13043L8.28277 2.17737Z" fill="#0052B4"/>
</g>
<defs>
<clipPath id="clip0_186_2997">
<rect width="20" height="20" fill="white"/>
</clipPath>
</defs>
</svg>
